# xmcd
#
# Track frame offsets:
#	150
#	53240
#	92000
#	136092
#	174277
#
# Disc length: 2689 seconds
#
# Revision: 2
# Processed by: cddbd v1.4PL0 Copyright (c) Steve Scherf et al.
# Submitted via: audiograbber 1.81.03
#
DISCID=350a7f05
DTITLE=Johnny Winter - Johnny Be Good - Live 80 [CD 2]
DYEAR=1980
DGENRE=Blues
TTITLE0=Mother In Law Blues
TTITLE1=Johnny Be Good
TTITLE2=New York, New York
TTITLE3=Rolling And Tumbling
TTITLE4=Don't Hide Your Love
EXTD=Live In Roslyn, U.S.A., April 10th, 1980
EXTT0=
EXTT1=
EXTT2=
EXTT3=
EXTT4=
PLAYORDER=
